<?xml version="1.0" standalone="no"?>
<!DOCTYPE svg PUBLIC "-//W3C//DTD SVG 20010904//EN"
 "http://www.w3.org/TR/2001/REC-SVG-20010904/DTD/svg10.dtd">
<svg version="1.0" xmlns="http://www.w3.org/2000/svg"
 width="1000.000000pt" height="1125.000000pt" viewBox="0 0 1000.000000 1125.000000"
 preserveAspectRatio="xMidYMid meet">

<g transform="translate(0.000000,1125.000000) scale(0.100000,-0.100000)"
fill="#6704b3" stroke="none">
<path d="M4705 10656 c-375 -141 -522 -209 -673 -310 -42 -28 -83 -55 -90 -59
-11 -7 -12 7 -7 80 8 103 2 133 -26 133 -34 0 -59 -19 -184 -135 -66 -61 -140
-125 -164 -141 -44 -28 -47 -29 -180 -29 -152 -1 -192 -11 -294 -72 -108 -65
-211 -185 -253 -295 -30 -75 -20 -72 -204 -63 -285 13 -293 12 -417 -92 -237
-198 -842 -793 -878 -864 -13 -25 -40 -92 -60 -150 -20 -57 -52 -129 -72 -159
-36 -55 -179 -201 -500 -510 -201 -194 -278 -293 -368 -475 -123 -249 -172
-445 -265 -1065 -23 -151 -47 -304 -55 -339 l-13 -64 98 -196 c180 -358 275
-631 326 -934 17 -97 17 -111 3 -135 -13 -24 -21 -27 -67 -27 l-52 0 0 -140
c0 -228 -5 -210 307 -914 199 -447 326 -757 398 -974 40 -117 54 -147 68 -147
30 0 71 -26 110 -69 38 -42 40 -48 95 -273 76 -314 240 -536 468 -631 84 -36
164 -47 334 -47 203 0 264 -19 390 -120 131 -105 280 -159 465 -169 l120 -6
210 -109 c305 -158 438 -231 541 -297 97 -63 127 -70 166 -39 14 10 28 16 32
13 3 -3 6 -37 6 -75 0 -49 4 -68 13 -68 7 0 64 7 127 15 259 33 463 47 685 47
264 0 427 -17 611 -62 118 -29 123 -30 180 -15 147 38 330 -7 526 -131 47 -30
149 -44 174 -23 15 12 15 39 -1 80 -10 25 95 66 271 105 154 35 156 35 188 17
19 -10 58 -47 88 -83 29 -36 69 -73 88 -83 l35 -17 6 95 c4 74 10 102 26 123
34 46 58 53 177 50 l108 -3 -6 65 c-10 110 -4 123 150 287 77 81 164 172 194
201 59 57 147 122 167 122 6 0 46 -37 88 -82 l77 -83 -5 56 c-7 72 -36 129
-104 203 -30 32 -53 66 -51 75 2 11 39 28 113 54 126 43 174 44 237 2 l37 -24
-19 42 c-16 36 -17 45 -6 62 29 43 75 59 188 65 86 5 113 10 135 26 39 28 71
96 79 165 6 56 10 63 121 196 362 434 582 806 814 1377 38 93 69 171 69 173 0
2 -21 -11 -46 -29 -84 -59 -220 -205 -294 -313 -85 -126 -121 -151 -172 -122
-17 10 -32 16 -33 15 -2 -2 -17 -48 -35 -103 -17 -55 -34 -102 -37 -105 -2 -3
-2 32 2 78 4 45 5 82 1 82 -4 0 -89 -64 -189 -142 -265 -206 -659 -502 -912
-683 -262 -188 -734 -504 -806 -540 -89 -46 -158 -32 -201 41 -11 19 -22 34
-25 34 -3 0 -31 -22 -62 -49 -56 -48 -91 -71 -110 -71 -23 0 -41 33 -41 76 l0
45 -87 -3 -88 -3 -24 -52 c-14 -29 -30 -53 -36 -53 -6 0 -21 18 -34 40 -12 22
-26 38 -31 35 -4 -3 -14 -44 -21 -92 -12 -85 -13 -87 -22 -50 -14 56 -45 51
-90 -15 -27 -41 -31 -39 -69 22 -26 42 -99 132 -104 127 -2 -2 3 -23 11 -47
28 -79 12 -138 -25 -92 l-18 21 -6 -31 c-3 -17 -6 -45 -6 -64 0 -26 -7 -37
-32 -55 -18 -12 -58 -46 -89 -75 -49 -46 -62 -53 -110 -58 -282 -30 -505 -66
-581 -95 -14 -5 -55 0 -112 15 -324 82 -695 140 -1126 179 -200 18 -342 47
-485 100 -98 36 -274 123 -367 181 l-47 29 43 23 c44 24 86 82 86 119 0 31 -9
32 -39 4 -31 -29 -68 -42 -168 -62 l-62 -11 -108 102 c-59 56 -268 251 -463
433 -391 364 -898 866 -1032 1022 -138 162 -177 232 -310 564 -38 97 -86 210
-105 253 l-36 78 -29 -25 c-38 -32 -54 -31 -88 5 -55 59 -68 149 -29 196 14
17 71 18 87 2 6 -6 14 -9 17 -7 3 3 -18 163 -46 355 -62 427 -61 434 11 582
29 59 56 121 61 137 5 17 41 316 79 665 74 671 93 788 165 1009 78 239 174
438 318 653 201 301 420 534 998 1061 146 134 171 152 364 265 94 55 278 164
410 242 404 239 744 395 1012 466 233 60 364 76 708 83 317 6 320 6 364 31 72
40 85 73 90 222 l3 128 -44 -6 c-57 -8 -96 9 -183 81 -60 50 -159 106 -183
105 -4 -1 -106 -38 -227 -84z m-3861 -6441 c13 -14 49 -85 81 -158 31 -73 67
-149 81 -169 29 -45 18 -48 -42 -13 -60 35 -85 74 -94 150 -5 41 -21 88 -44
134 -20 39 -36 73 -36 76 0 14 34 2 54 -20z m-139 6 c9 -15 66 -204 62 -207
-2 -2 -28 26 -57 64 -30 37 -58 69 -62 70 -14 6 -9 50 8 66 17 18 40 21 49 7z"/>
<path d="M6322 10389 c-28 -14 -51 -36 -69 -66 -19 -32 -30 -42 -42 -37 -53
21 -97 26 -201 21 -162 -7 -221 -35 -261 -122 -103 -223 245 -482 686 -511 56
-4 113 -13 130 -22 17 -8 113 -65 215 -125 256 -153 616 -396 1140 -771 245
-175 456 -323 470 -328 45 -17 120 -1 213 47 49 25 92 44 94 41 3 -3 6 -53 8
-113 1 -71 10 -136 24 -191 23 -88 95 -281 131 -352 29 -57 102 -133 171 -181
77 -52 144 -129 170 -197 34 -87 38 -233 9 -346 l-21 -87 57 -107 c31 -59 82
-145 113 -192 54 -82 210 -251 260 -282 21 -12 26 -25 32 -87 10 -88 28 -121
68 -121 21 0 38 10 60 35 29 33 31 34 31 12 0 -12 -8 -77 -17 -142 -20 -144
-24 -525 -6 -565 11 -23 12 -22 12 20 1 70 39 382 61 510 25 136 69 316 105
419 14 41 23 76 21 78 -11 11 -51 -24 -81 -72 -36 -56 -81 -98 -99 -92 -6 2
-11 21 -10 43 2 91 -17 465 -31 592 -8 75 -31 268 -51 427 l-36 290 -511 818
c-554 889 -568 908 -771 1089 -316 281 -712 494 -1158 622 -196 56 -284 66
-598 66 -260 0 -277 -1 -318 -21z"/>
<path d="M4700 8321 c0 -96 2 -110 18 -114 9 -3 101 -18 205 -33 l187 -27 -3
-2176 -2 -2176 -23 -85 c-59 -219 -169 -365 -324 -428 -83 -33 -210 -36 -279
-5 -92 41 -159 127 -159 206 l0 37 -88 0 -88 0 -86 -267 -86 -267 31 -24 c49
-36 164 -88 247 -112 93 -27 305 -39 377 -21 81 20 208 88 311 166 298 224
536 608 622 1000 56 262 54 154 57 2236 l4 1915 187 28 c103 15 195 30 205 32
15 5 17 19 17 115 l0 109 -665 0 -665 0 0 -109z"/>
</g>
</svg>
